<?xml version="1.0" encoding="UTF-8" standalone="no"?>
<!-- Generator: Adobe Illustrator 18.0.0, SVG Export Plug-In . SVG Version: 6.00 Build 0)  -->

<svg
   xmlns:dc="http://purl.org/dc/elements/1.1/"
   xmlns:cc="http://creativecommons.org/ns#"
   xmlns:rdf="http://www.w3.org/1999/02/22-rdf-syntax-ns#"
   xmlns:svg="http://www.w3.org/2000/svg"
   xmlns="http://www.w3.org/2000/svg"
   xmlns:sodipodi="http://sodipodi.sourceforge.net/DTD/sodipodi-0.dtd"
   xmlns:inkscape="http://www.inkscape.org/namespaces/inkscape"
   version="1.1"
   id="Capa_1"
   x="0px"
   y="0px"
   viewBox="0 0 490.544 490.544"
   style="enable-background:new 0 0 490.544 490.544;"
   xml:space="preserve"
   sodipodi:docname="ac.svg"
   inkscape:version="0.92.4 5da689c313, 2019-01-14"><metadata
   id="metadata278"><rdf:RDF><cc:Work
       rdf:about=""><dc:format>image/svg+xml</dc:format><dc:type
         rdf:resource="http://purl.org/dc/dcmitype/StillImage" /></cc:Work></rdf:RDF></metadata><defs
   id="defs276" /><sodipodi:namedview
   pagecolor="#ffffff"
   bordercolor="#666666"
   borderopacity="1"
   objecttolerance="10"
   gridtolerance="10"
   guidetolerance="10"
   inkscape:pageopacity="0"
   inkscape:pageshadow="2"
   inkscape:window-width="1920"
   inkscape:window-height="1040"
   id="namedview274"
   showgrid="false"
   inkscape:zoom="1.6430738"
   inkscape:cx="245.272"
   inkscape:cy="245.272"
   inkscape:window-x="0"
   inkscape:window-y="0"
   inkscape:window-maximized="0"
   inkscape:current-layer="Capa_1" />
<g
   id="g241">
	<path
   d="M411.557,88.778H78.987C35.434,88.778,0,124.212,0,167.765v90.163c0,43.553,35.434,78.987,78.987,78.987h16.919   c8.284,0,15-6.716,15-15v-21.972h71.791c-2.98,19.838-20.136,35.098-40.791,35.098c-8.284,0-15,6.716-15,15s6.716,15,15,15   c37.213,0,67.836-28.682,70.968-65.098h17.397v86.824c0,8.284,6.716,15,15,15s15-6.716,15-15v-86.824h17.397   c3.132,36.416,33.755,65.098,70.968,65.098c8.284,0,15-6.716,15-15s-6.716-15-15-15c-20.655,0-37.81-15.26-40.791-35.098h71.791   v21.972c0,8.284,6.716,15,15,15h16.919c43.553,0,78.987-35.434,78.987-78.987v-90.163   C490.544,124.212,455.11,88.778,411.557,88.778z M78.987,118.778h332.57c22.715,0,41.864,15.543,47.383,36.55H31.604   C37.123,134.321,56.272,118.778,78.987,118.778z M411.557,306.914h-1.919v-21.972c0-8.284-6.716-15-15-15H95.906   c-8.284,0-15,6.716-15,15v21.972h-1.919C51.976,306.914,30,284.939,30,257.927v-72.599h430.544v72.599   C460.544,284.939,438.568,306.914,411.557,306.914z"
   id="path235" />
	<path
   d="M426.152,227.804c-0.1-0.47-0.22-0.95-0.36-1.42c-0.15-0.47-0.31-0.93-0.5-1.38c-0.19-0.45-0.4-0.9-0.63-1.33   s-0.48-0.86-0.75-1.26c-0.27-0.41-0.56-0.81-0.87-1.19c-0.31-0.38-0.65-0.75-0.99-1.09c-0.35-0.35-0.72-0.68-1.1-0.99   c-0.38-0.31-0.78-0.61-1.18-0.88c-0.41-0.27-0.83-0.52-1.27-0.75c-0.43-0.23-0.87-0.44-1.32-0.63c-0.45-0.18-0.92-0.35-1.39-0.49   c-0.46-0.15-0.94-0.27-1.42-0.36c-0.48-0.1-0.97-0.17-1.46-0.22c-0.97-0.1-1.97-0.1-2.95,0c-0.48,0.05-0.97,0.12-1.45,0.22   c-0.48,0.09-0.96,0.21-1.43,0.36c-0.46,0.14-0.93,0.31-1.38,0.49c-0.45,0.19-0.9,0.4-1.33,0.63c-0.43,0.23-0.85,0.48-1.26,0.75   c-0.4,0.27-0.8,0.57-1.18,0.88c-0.38,0.31-0.75,0.64-1.1,0.99c-0.34,0.34-0.68,0.71-0.99,1.09c-0.31,0.38-0.6,0.78-0.87,1.19   c-0.27,0.4-0.53,0.83-0.75,1.26c-0.23,0.43-0.44,0.88-0.63,1.33s-0.35,0.91-0.5,1.38c-0.14,0.47-0.26,0.95-0.36,1.42   c-0.09,0.48-0.17,0.97-0.22,1.46c-0.05,0.49-0.07,0.98-0.07,1.47c0,0.49,0.02,0.99,0.07,1.48c0.05,0.48,0.13,0.97,0.22,1.45   c0.1,0.48,0.22,0.96,0.36,1.43c0.15,0.47,0.31,0.93,0.5,1.38c0.19,0.45,0.4,0.9,0.63,1.33c0.22,0.43,0.48,0.85,0.75,1.26   c0.27,0.41,0.56,0.81,0.87,1.19s0.65,0.75,0.99,1.09c0.35,0.35,0.72,0.68,1.1,0.99c0.38,0.31,0.78,0.6,1.18,0.88   c0.41,0.27,0.83,0.52,1.26,0.75c0.44,0.23,0.88,0.44,1.33,0.62c0.45,0.19,0.92,0.36,1.38,0.5c0.47,0.14,0.95,0.26,1.43,0.36   s0.97,0.17,1.45,0.22c0.49,0.05,0.99,0.07,1.48,0.07c0.49,0,0.98-0.02,1.47-0.07c0.49-0.05,0.98-0.12,1.46-0.22   s0.96-0.22,1.42-0.36c0.47-0.14,0.94-0.31,1.39-0.5c0.45-0.18,0.89-0.39,1.32-0.62c0.44-0.23,0.86-0.48,1.27-0.75   c0.4-0.28,0.8-0.57,1.18-0.88c0.38-0.31,0.75-0.64,1.1-0.99c0.34-0.34,0.68-0.71,0.99-1.09c0.31-0.38,0.6-0.78,0.87-1.19   c0.27-0.41,0.52-0.83,0.75-1.26c0.23-0.43,0.44-0.88,0.63-1.33c0.19-0.45,0.35-0.91,0.5-1.38c0.14-0.47,0.26-0.95,0.36-1.43   c0.09-0.48,0.17-0.97,0.21-1.45c0.05-0.49,0.08-0.99,0.08-1.48c0-0.49-0.03-0.98-0.08-1.47   C426.322,228.775,426.242,228.284,426.152,227.804z"
   id="path237" />
	<path
   d="M372.002,227.804c-0.1-0.47-0.22-0.95-0.36-1.42c-0.14-0.47-0.31-0.93-0.5-1.38c-0.18-0.45-0.39-0.9-0.62-1.33   s-0.48-0.86-0.75-1.26c-0.28-0.41-0.57-0.81-0.88-1.19c-0.31-0.38-0.64-0.75-0.99-1.09c-0.34-0.35-0.71-0.68-1.09-0.99   c-0.38-0.31-0.78-0.61-1.19-0.88c-0.4-0.27-0.83-0.52-1.26-0.75s-0.88-0.44-1.33-0.63c-0.45-0.18-0.91-0.35-1.38-0.49   c-0.47-0.15-0.95-0.27-1.42-0.36c-0.48-0.1-0.97-0.17-1.46-0.22c-0.98-0.1-1.97-0.1-2.95,0c-0.49,0.05-0.98,0.12-1.46,0.22   c-0.47,0.09-0.95,0.21-1.42,0.36c-0.47,0.14-0.93,0.31-1.38,0.49c-0.45,0.19-0.9,0.4-1.33,0.63c-0.43,0.23-0.86,0.48-1.26,0.75   c-0.41,0.27-0.81,0.57-1.19,0.88s-0.75,0.64-1.09,0.99c-0.35,0.34-0.68,0.71-0.99,1.09c-0.31,0.38-0.61,0.78-0.88,1.19   c-0.27,0.4-0.52,0.83-0.75,1.26s-0.44,0.88-0.63,1.33c-0.18,0.45-0.35,0.91-0.49,1.38c-0.14,0.47-0.26,0.95-0.36,1.42   c-0.1,0.48-0.17,0.97-0.22,1.46c-0.05,0.49-0.08,0.98-0.08,1.47c0,0.49,0.03,0.99,0.08,1.48c0.05,0.49,0.12,0.97,0.22,1.46   c0.1,0.47,0.22,0.95,0.36,1.42c0.14,0.47,0.31,0.93,0.49,1.38c0.19,0.45,0.4,0.9,0.63,1.33c0.23,0.43,0.48,0.85,0.75,1.26   c0.27,0.41,0.57,0.81,0.88,1.19s0.64,0.74,0.99,1.09c0.34,0.35,0.71,0.68,1.09,0.99s0.78,0.6,1.19,0.88   c0.4,0.27,0.83,0.52,1.26,0.75c0.43,0.23,0.88,0.44,1.33,0.63c0.45,0.18,0.91,0.35,1.38,0.49c0.47,0.14,0.95,0.26,1.42,0.36   c0.48,0.1,0.97,0.17,1.46,0.22c0.49,0.05,0.99,0.07,1.48,0.07c0.48,0,0.98-0.02,1.47-0.07c0.49-0.05,0.98-0.12,1.46-0.22   c0.47-0.1,0.95-0.22,1.42-0.36c0.47-0.14,0.93-0.31,1.38-0.49c0.45-0.19,0.9-0.4,1.33-0.63s0.86-0.48,1.26-0.75   c0.41-0.28,0.81-0.57,1.19-0.88c0.38-0.31,0.75-0.64,1.09-0.99c0.35-0.34,0.68-0.71,0.99-1.09c0.31-0.38,0.6-0.78,0.88-1.19   c0.27-0.41,0.52-0.83,0.75-1.26c0.23-0.43,0.44-0.88,0.62-1.33c0.19-0.45,0.36-0.91,0.5-1.38c0.14-0.47,0.26-0.95,0.36-1.42   c0.1-0.49,0.17-0.97,0.22-1.46c0.05-0.49,0.07-0.99,0.07-1.48c0-0.49-0.02-0.98-0.07-1.47   C372.172,228.775,372.102,228.284,372.002,227.804z"
   id="path239" />
</g>
<g
   id="g243">
</g>
<g
   id="g245">
</g>
<g
   id="g247">
</g>
<g
   id="g249">
</g>
<g
   id="g251">
</g>
<g
   id="g253">
</g>
<g
   id="g255">
</g>
<g
   id="g257">
</g>
<g
   id="g259">
</g>
<g
   id="g261">
</g>
<g
   id="g263">
</g>
<g
   id="g265">
</g>
<g
   id="g267">
</g>
<g
   id="g269">
</g>
<g
   id="g271">
</g>
<path
   style="fill:#ffffff;fill-opacity:1;stroke:#000000;stroke-width:0.6086154;stroke-opacity:0"
   d="m 239.24671,400.05578 c -2.96724,-1.36117 -5.47112,-3.81381 -7.21241,-7.06484 -1.30054,-2.42814 -1.30918,-2.70886 -1.47532,-47.93644 l -0.16712,-45.494 h -8.79836 c -9.96627,0 -8.92625,-0.61345 -9.75738,5.75528 -0.61753,4.73198 -3.18359,12.93607 -5.77727,18.47083 -6.49746,13.86524 -17.93227,25.82055 -31.39603,32.82516 -9.45669,4.91992 -21.65384,8.07057 -31.24363,8.07057 -3.89973,0 -5.23031,-0.27906 -7.98025,-1.67369 -9.75791,-4.94874 -10.97306,-18.1734 -2.26741,-24.67651 2.63572,-1.96888 5.18809,-2.67938 11.38271,-3.16857 10.4008,-0.82137 19.07766,-4.73721 26.28111,-11.86058 6.12998,-6.06184 10.3083,-13.69522 11.74679,-21.46019 l 0.42281,-2.2823 h -36.2402 -36.24019 v 12.25385 c 0,13.70208 -0.37044,15.75129 -3.5105,19.41975 -4.01436,4.68988 -5.54421,5.12064 -18.993509,5.34804 -13.37702,0.22619 -21.039043,-0.47653 -29.319681,-2.68905 C 28.8882,325.92739 5.8455013,300.26793 1.2751318,269.946 0.53186029,265.01479 0.37234493,254.92334 0.37234493,212.8328 c 0,-56.75065 0.0647382,-57.90029 3.90708147,-69.38296 C 13.325628,116.41566 35.032125,96.93552 63.052555,90.704868 l 6.390461,-1.42099 H 245.02856 c 165.56654,0 175.88705,0.06145 180.86967,1.076971 15.80814,3.221891 29.13852,10.184051 40.28127,21.038031 11.49274,11.19487 18.86547,24.45356 22.3918,40.26808 l 1.42495,6.39046 v 54.77538 54.77539 l -1.42495,6.39046 c -3.38812,15.1947 -9.80655,27.21102 -20.44473,38.27579 -11.23512,11.68564 -24.58589,19.15502 -40.5134,22.66611 -5.72105,1.26116 -7.98428,1.41042 -21.60584,1.42495 -16.84018,0.018 -17.48296,-0.10459 -21.61109,-4.12014 -3.89388,-3.78771 -4.2268,-5.33796 -4.2417,-19.75179 l -0.0134,-12.93307 h -36.21261 -36.21262 l 0.008,1.36938 c 0.004,0.75316 0.79542,3.63114 1.75764,6.39551 5.50778,15.82321 19.72306,26.54027 36.98098,27.88039 8.3689,0.64987 12.42904,2.87316 15.18739,8.3165 1.3368,2.63805 1.54058,3.72673 1.34511,7.18613 -0.29617,5.24146 -2.58136,9.18048 -6.86176,11.82769 -2.54815,1.57591 -3.6902,1.8721 -7.90735,2.05076 -9.42685,0.39939 -21.85014,-2.65915 -31.98955,-7.87564 -19.73801,-10.15475 -33.62832,-29.05827 -37.44837,-50.96406 -0.49192,-2.82088 -0.8944,-5.36688 -0.8944,-5.65777 0,-0.29089 -3.96283,-0.52889 -8.80629,-0.52889 h -8.80629 l -0.17079,45.18969 c -0.15873,41.99879 -0.24817,45.36159 -1.26671,47.62415 -1.44301,3.20548 -4.40987,6.26983 -7.42469,7.66865 -3.20904,1.48893 -8.94127,1.49496 -12.17231,0.0128 z M 81.311016,293.72827 l 0.304308,-13.4399 1.841938,-2.97662 c 1.140131,-1.84248 2.977061,-3.67842 4.821159,-4.81855 l 2.979221,-1.84193 152.731958,-0.15573 c 109.22113,-0.11135 153.44779,0.0342 155.24468,0.51103 3.27592,0.86925 8.3321,5.96898 9.37244,9.45315 0.48079,1.6102 0.74799,6.76093 0.74799,14.4187 0,6.55249 0.22219,12.05094 0.49375,12.21878 1.11832,0.69116 12.60585,-0.91791 17.00144,-2.38141 7.67338,-2.55481 13.20604,-6.03437 19.32604,-12.15437 8.56194,-8.56194 13.05445,-17.87441 14.29239,-29.62657 0.32868,-3.12022 0.60234,-21.90033 0.60814,-41.73359 l 0.0106,-36.06046 H 245.30092 29.514826 l 0.214935,40.32077 c 0.195851,36.74065 0.313327,40.67203 1.323063,44.27677 4.814005,17.18593 17.376373,30.34516 33.702868,35.30419 4.233224,1.2858 11.533048,2.3799 14.729478,2.20765 l 1.521539,-0.082 z M 458.93207,153.94926 c -2.34353,-7.80577 -7.56028,-16.2376 -13.46165,-21.75804 -6.82263,-6.38223 -13.12059,-9.85912 -22.35271,-12.34016 l -4.93807,-1.32705 -167.67354,-0.19157 c -114.86461,-0.13124 -169.950801,0.012 -174.904066,0.45473 -13.17897,1.178 -22.059849,5.26472 -31.112402,14.31702 -6.597201,6.59701 -10.314282,12.67039 -12.757781,20.84507 l -0.409323,1.36939 H 245.33286 459.3432 Z"
   id="path292"
   inkscape:connector-curvature="0" /><path
   style="fill:#ffffff;fill-opacity:1;stroke:#000000;stroke-width:0.6086154;stroke-opacity:0"
   d="m 350.8888,243.72003 c -9.20314,-4.66738 -11.03721,-16.19313 -3.70626,-23.29102 5.9322,-5.74361 14.33891,-5.74361 20.27111,0 7.30317,7.07099 5.46201,18.64133 -3.70625,23.29102 -2.32849,1.1809 -4.22151,1.6737 -6.4293,1.6737 -2.2078,0 -4.10081,-0.4928 -6.4293,-1.6737 z"
   id="path294"
   inkscape:connector-curvature="0" /><path
   style="fill:#ffffff;fill-opacity:1;stroke:#000000;stroke-width:0.6086154;stroke-opacity:0"
   d="m 405.39428,243.96268 c -9.86477,-4.59379 -11.55521,-17.26452 -3.25156,-24.37214 8.36255,-7.15803 21.18776,-2.65812 23.61303,8.28497 2.53406,11.43401 -9.66184,21.06974 -20.36147,16.08717 z"
   id="path296"
   inkscape:connector-curvature="0" /></svg>