<?xml version="1.0" encoding="UTF-8" standalone="no"?>
<svg
   xmlns:dc="http://purl.org/dc/elements/1.1/"
   xmlns:cc="http://creativecommons.org/ns#"
   xmlns:rdf="http://www.w3.org/1999/02/22-rdf-syntax-ns#"
   xmlns:svg="http://www.w3.org/2000/svg"
   xmlns="http://www.w3.org/2000/svg"
   xmlns:sodipodi="http://sodipodi.sourceforge.net/DTD/sodipodi-0.dtd"
   xmlns:inkscape="http://www.inkscape.org/namespaces/inkscape"
   height="512pt"
   viewBox="-86 0 512 512"
   width="512pt"
   version="1.1"
   id="svg375"
   sodipodi:docname="fan.svg"
   inkscape:version="0.92.4 5da689c313, 2019-01-14">
  <metadata
     id="metadata381">
    <rdf:RDF>
      <cc:Work
         rdf:about="">
        <dc:format>image/svg+xml</dc:format>
        <dc:type
           rdf:resource="http://purl.org/dc/dcmitype/StillImage" />
      </cc:Work>
    </rdf:RDF>
  </metadata>
  <defs
     id="defs379" />
  <sodipodi:namedview
     pagecolor="#ffffff"
     bordercolor="#666666"
     borderopacity="1"
     objecttolerance="10"
     gridtolerance="10"
     guidetolerance="10"
     inkscape:pageopacity="0"
     inkscape:pageshadow="2"
     inkscape:window-width="1920"
     inkscape:window-height="1040"
     id="namedview377"
     showgrid="false"
     inkscape:zoom="1.1806641"
     inkscape:cx="341.33333"
     inkscape:cy="341.33333"
     inkscape:window-x="0"
     inkscape:window-y="0"
     inkscape:window-maximized="0"
     inkscape:current-layer="svg375" />
  <path
     d="m122.269531 333.175781c.765625 6.507813 1.839844 17.894531 1.839844 30.734375 0 31.0625-5.917969 68.089844-34.109375 68.089844-22.054688 0-40 17.945312-40 40v10c0 16.542969 13.457031 30 30 30h45c5.523438 0 10-4.476562 10-10s-4.476562-10-10-10h-45c-5.515625 0-10-4.484375-10-10v-10c0-11.027344 8.972656-20 20-20 20.207031 0 54.109375-11.445312 54.109375-88.089844 0-10.023437-.589844-19.132812-1.238281-26.089844 8.9375 1.4375 18.015625 2.179688 27.128906 2.179688 9.109375 0 18.183594-.738281 27.117188-2.179688-.605469 6.515626-1.066407 14.90625-1.117188 24.179688-.242188 43.433594 10.601562 90 54 90 11.046875 0 20 8.953125 20 20v10c0 5.515625-4.484375 10-10 10h-45c-5.523438 0-10 4.476562-10 10s4.476562 10 10 10h45c16.542969 0 30-13.457031 30-30v-10c0-22.097656-17.898438-40-40-40-29.585938 0-34.285156-40.417969-34.109375-70 .066406-11.042969.882813-21.28125 1.804687-28.816406 69.480469-20.394532 122.304688-84.753906 122.304688-163.183594 0-93.738281-76.261719-170-170-170s-170 76.261719-170 170c0 78.136719 52.539062 142.6875 122.269531 163.175781zm47.730469-313.175781c82.710938 0 150 67.289062 150 150 0 83.605469-67.890625 150.519531-151 149.976562-82.074219-.539062-149-66.890624-149-149.976562 0-82.710938 67.289062-150 150-150zm0 0"
     id="path367" />
  <path
     d="m110 240c19.050781 0 37-7.761719 50-21.011719v71.011719c0 5.523438 4.476562 10 10 10 38.597656 0 70-31.402344 70-70 0-19.050781-7.761719-37-21.011719-50h71.011719c5.523438 0 10-4.476562 10-10 0-38.597656-31.402344-70-70-70-19.050781 0-36.996094 7.761719-50 21.011719v-71.011719c0-5.523438-4.476562-10-10-10-38.597656 0-70 31.402344-70 70 0 19.050781 7.761719 37 21.011719 50h-71.011719c-5.523438 0-10 4.476562-10 10 0 38.597656 31.402344 70 70 70zm60-90c11.082031 0 20 8.960938 20 20 0 11.082031-8.960938 20-20 20-11.082031 0-20-8.960938-20-20 0-11.078125 8.960938-20 20-20zm10 128.996094v-70.257813c9.445312-2.433593 17.644531-8.242187 23.078125-16.226562 10.625 9.394531 16.921875 22.996093 16.921875 37.488281 0 24.144531-17.207031 44.347656-40 48.996094zm50-158.996094c24.144531 0 44.351562 17.207031 48.996094 40h-70.261719c-2.429687-9.445312-8.238281-17.644531-16.222656-23.078125 9.394531-10.625 22.992187-16.921875 37.488281-16.921875zm-70-58.996094v70.257813c-9.445312 2.433593-17.644531 8.242187-23.078125 16.226562-10.625-9.390625-16.921875-22.992187-16.921875-37.488281 0-24.144531 17.207031-44.347656 40-48.996094zm-28.738281 118.996094c2.433593 9.445312 8.242187 17.644531 16.226562 23.078125-9.390625 10.625-22.992187 16.921875-37.488281 16.921875-24.144531 0-44.347656-17.207031-48.996094-40zm0 0"
     id="path369" />
  <path
     d="m200 462c0-5.523438-4.476562-10-10-10h-40c-5.523438 0-10 4.476562-10 10s4.476562 10 10 10h40c5.523438 0 10-4.476562 10-10zm0 0"
     id="path371" />
  <path
     d="m180 502c0 5.523438-4.476562 10-10 10s-10-4.476562-10-10 4.476562-10 10-10 10 4.476562 10 10zm0 0"
     id="path373" />
  <path
     style="fill:#ffffff;fill-opacity:1;stroke:#000000;stroke-width:0.84698099;stroke-opacity:0"
     d="m 209.51087,680.34436 c -13.18419,-4.21465 -23.89904,-16.0236 -26.78819,-29.52352 -1.36044,-6.35679 -1.18206,-25.66567 0.3018,-32.66948 3.85289,-18.18556 19.06562,-34.30554 37.55715,-39.79693 2.48268,-0.73727 8.00859,-1.57485 12.27981,-1.86128 10.02745,-0.67245 15.92809,-2.34183 21.61142,-6.11421 18.69392,-12.40832 28.03553,-48.69569 25.56013,-99.28812 -0.44445,-9.08387 -1.06504,-18.88479 -1.37909,-21.77982 l -0.57101,-5.26368 -5.59959,-1.83976 C 247.00399,433.83634 221.35475,420.0077 200.3957,403.34195 190.16314,395.20547 173.52059,378.80679 165.77926,369.23276 118.7228,311.0361 103.49554,235.22794 124.31193,162.78974 139.67526,109.32744 178.20941,60.14263 227.14476,31.534365 289.15362,-4.7168423 363.85119,-9.5020627 429.89903,18.545672 c 26.37859,11.201873 50.07387,27.331233 71.22639,48.48375 46.23522,46.235228 69.31082,106.669768 65.89864,172.587258 -4.68328,90.47272 -64.20484,169.44082 -151.20382,200.60423 -13.12882,4.7028 -11.54063,1.39412 -13.09812,27.28742 -2.80526,46.63745 4.57098,82.71208 20.09015,98.25399 7.20383,7.2144 12.21729,9.35463 24.39021,10.41214 11.9357,1.03689 17.83881,2.55105 25.36574,6.50633 11.76228,6.18091 21.18712,17.36383 25.67724,30.46701 1.94595,5.6787 2.30845,8.34203 2.62588,19.29289 0.54047,18.64493 -1.86839,27.19264 -10.30887,36.58048 -4.77033,5.30576 -10.27926,8.89546 -17.20043,11.20805 -4.99792,1.66998 -7.07873,1.75986 -40.74158,1.75986 -35.39666,0 -35.4808,-0.004 -38.26655,-1.90571 -5.7759,-3.94256 -7.44877,-11.06298 -4.00879,-17.06319 3.70071,-6.45501 3.60974,-6.44053 40.44847,-6.44053 32.1813,0 32.7089,-0.0276 36.42656,-1.9057 2.07476,-1.04814 4.66283,-3.23971 5.75125,-4.87015 1.89318,-2.83592 1.96621,-3.51518 1.68486,-15.66914 -0.27415,-11.84295 -0.44829,-12.99906 -2.56727,-17.0441 -2.86736,-5.47369 -8.87153,-10.80252 -14.50998,-12.87792 -2.57115,-0.9464 -7.83395,-1.8154 -12.8293,-2.11841 -14.64243,-0.88818 -25.35979,-4.8662 -35.74139,-13.26636 -12.95922,-10.48578 -23.24323,-30.64721 -28.08545,-55.06046 -3.54242,-17.86 -3.93214,-23.23403 -3.91526,-53.99011 0.0144,-26.31008 -0.13627,-29.80614 -1.27047,-29.47172 -8.09932,2.38806 -45.20361,2.98916 -60.99901,0.98821 -5.35715,-0.67864 -9.80284,-1.17093 -9.87929,-1.09395 -0.0765,0.077 0.24881,4.90421 0.72282,10.72721 1.27603,15.67564 0.34501,48.76206 -1.75896,62.50915 -5.66351,37.00478 -19.72826,61.71154 -41.08865,72.17815 -8.58179,4.20508 -14.51055,5.70023 -26.38988,6.65515 -11.26432,0.90548 -15.98499,2.93864 -21.77473,9.37822 -5.51638,6.13555 -6.55091,9.89141 -6.55091,23.78304 0,10.61624 0.15884,11.81498 1.9057,14.38166 1.04814,1.54003 2.98109,3.59739 4.29544,4.5719 2.30884,1.71188 3.55583,1.78617 36.84367,2.19533 38.95256,0.47878 38.3492,0.37401 41.67128,7.23651 2.1673,4.47705 2.11359,6.91516 -0.25085,11.38639 -3.64882,6.90002 -2.96554,6.79277 -42.94996,6.74098 -31.69509,-0.0411 -35.64223,-0.19877 -40.02294,-1.59917 z M 359.20463,426.20438 c 29.24725,-2.64324 61.01285,-13.07348 86.39206,-28.36683 10.17035,-6.12859 24.3933,-17.03948 33.7279,-25.87377 63.38582,-59.98853 80.39439,-155.38783 41.64466,-233.58067 C 504.67143,105.49583 482.33954,80.09081 451.94905,59.864914 427.72127,43.74051 401.09588,33.39045 371.06237,28.421909 c -13.32061,-2.20367 -46.1508,-2.211664 -59.28867,-0.01444 -34.90382,5.837441 -64.10592,18.194407 -91.62521,38.771514 -10.68196,7.987261 -30.30102,27.606317 -38.28828,38.288287 -20.56961,27.50926 -33.07243,57.04636 -38.78423,91.6252 -2.1507,13.02019 -2.16393,45.96411 -0.0238,59.28201 3.38591,21.07037 9.2537,39.69194 18.41748,58.44835 36.30876,74.31665 115.33102,118.82887 197.73497,111.38155 z"
     id="path383"
     inkscape:connector-curvature="0"
     transform="matrix(0.74999998,0,0,0.74999998,-86,0)" />
  <path
     style="fill:#ffffff;fill-opacity:1;stroke:#000000;stroke-width:0.84698099;stroke-opacity:0"
     d="m 337.3388,398.71809 c -4.00054,-1.42775 -6.00081,-3.19341 -7.71854,-6.81325 -1.16148,-2.44765 -1.33043,-9.00809 -1.33043,-51.66046 v -48.85677 l -5.29363,4.59665 c -19.14704,16.62609 -40.61743,24.25308 -65.42929,23.24264 -13.84997,-0.56403 -24.65195,-3.23571 -36.52057,-9.03271 -28.97955,-14.15452 -48.1562,-41.1931 -51.9903,-73.30499 -1.19559,-10.01355 -0.6698,-14.19445 2.2698,-18.04845 4.0728,-5.33972 2.90799,-5.23215 56.65453,-5.23215 h 48.8136 l -4.37746,-4.78963 c -25.44798,-27.84415 -31.1273,-70.13561 -13.94591,-103.84924 4.94507,-9.703319 9.413,-15.762204 17.64926,-23.933888 16.01431,-15.888761 34.13199,-24.437728 56.79747,-26.800331 9.37324,-0.977046 9.61964,-0.958044 13.68132,1.055067 3.15018,1.561339 4.59046,2.950919 6.04188,5.82917 l 1.90571,3.779136 v 48.644796 48.6448 l 4.44665,-4.19245 c 12.46392,-11.75139 31.10272,-20.60353 48.84442,-23.19771 10.66269,-1.55909 27.33205,-0.60942 37.33589,2.12707 39.21625,10.72733 67.65881,46.16044 68.81119,85.72345 0.19051,6.54057 -0.0246,7.86575 -1.71989,10.59198 -1.13742,1.82918 -3.43406,3.84048 -5.56104,4.87014 -3.5355,1.7115 -4.80038,1.75405 -52.14238,1.75405 H 406.0421 l 4.24775,4.64771 c 9.35451,10.23533 17.28095,24.95579 21.11909,39.22099 1.98788,7.38836 2.21148,9.72125 2.20865,23.0428 -0.003,16.17162 -0.75966,20.40629 -6.1316,34.3362 -9.56141,24.79356 -32.37601,45.96397 -58.25188,54.05381 -12.11792,3.78856 -26.68598,5.41073 -31.89531,3.55157 z m 24.0413,-28.08975 c 6.75602,-2.00564 13.96895,-5.82603 20.82388,-11.02954 27.94714,-21.21443 34.36107,-61.71639 14.40078,-90.93643 -5.31407,-7.77932 -12.41419,-14.13956 -12.41419,-11.12055 0,1.45959 -10.93921,11.60358 -15.42534,14.30399 -2.52176,1.51799 -6.65738,3.48972 -9.19026,4.38165 l -4.60524,1.62169 -0.21886,47.07244 c -0.17973,38.65814 -0.018,47.07245 0.905,47.07245 0.61812,0 3.19402,-0.61456 5.72423,-1.3657 z m -83.16535,-79.19946 c 10.87102,-2.74545 24.49612,-10.55381 31.33409,-17.95714 l 2.01005,-2.17625 -6.66845,-6.61019 c -6.59493,-6.53732 -11.40993,-14.0725 -13.83066,-21.64411 l -1.01546,-3.17618 h -47.31961 -47.31959 l 1.30704,4.44665 c 4.2133,14.334 12.36775,26.63978 23.12896,34.90365 17.09694,13.12927 37.68822,17.4376 58.37363,12.21357 z m 74.80258,-40.40295 c 8.96068,-4.39425 14.41169,-12.69225 14.93992,-22.74287 0.38769,-7.37656 -1.25075,-12.92539 -5.43444,-18.40461 -5.09946,-6.67856 -12.14519,-9.87773 -21.78778,-9.89291 -16.44551,-0.0259 -28.45018,14.44917 -25.83164,31.14744 1.47467,9.40381 7.61952,17.08872 16.51675,20.65626 5.7372,2.30046 16.09615,1.93435 21.59719,-0.76331 z m 133.65794,-38.53407 c 0,-2.59973 -2.93813,-10.76518 -5.99822,-16.66986 -14.48848,-27.9566 -45.75488,-41.75323 -76.70399,-33.84645 -10.10497,2.58158 -22.63109,9.72155 -29.44136,16.78177 l -3.30651,3.42786 6.32377,6.18318 c 6.32426,6.18365 10.87026,13.14565 13.85422,21.21708 l 1.48734,4.02316 h 46.89238 c 38.24852,0 46.89237,-0.20585 46.89237,-1.11674 z M 303.53085,190.08267 c 6.46868,-6.50565 13.97496,-11.2718 21.5828,-13.70412 l 3.17618,-1.01546 v -47.3196 -47.319597 l -4.44665,1.312549 c -24.34869,7.187168 -41.40284,24.698378 -47.7128,48.991518 -2.07135,7.97463 -2.05988,23.19208 0.0236,31.33829 1.81564,7.09898 6.02907,16.55453 9.87878,22.16943 2.61221,3.81 9.9018,12.1333 10.6264,12.1333 0.17754,0 3.26981,-2.96384 6.87169,-6.58631 z"
     id="path385"
     inkscape:connector-curvature="0"
     transform="matrix(0.74999998,0,0,0.74999998,-86,0)" />
  <path
     style="fill:#ffffff;fill-opacity:1;stroke:#000000;stroke-width:0.84698099;stroke-opacity:0"
     d="m 308.16629,626.93989 c -8.18087,-4.98793 -8.18087,-17.04272 0,-22.03065 2.61673,-1.59545 4.31893,-1.68322 32.70025,-1.68622 25.87365,-0.003 30.33332,0.18356 32.83719,1.37172 8.64836,4.10392 9.36392,16.69587 1.25654,22.11195 -2.85956,1.91031 -3.07322,1.92257 -33.45575,1.91942 -29.01793,-0.003 -30.71862,-0.089 -33.33823,-1.68622 z"
     id="path387"
     inkscape:connector-curvature="0"
     transform="matrix(0.74999998,0,0,0.74999998,-86,0)" />
  <path
     style="fill:#ffffff;fill-opacity:1;stroke:#000000;stroke-width:0.84698099;stroke-opacity:0"
     d="m 335.07357,680.41765 c -3.21092,-1.72204 -6.78374,-7.51497 -6.78374,-10.99909 0,-3.80848 3.16339,-9.01286 6.6795,-10.98902 8.67587,-4.87612 19.05569,1.03661 19.05569,10.85483 0,9.61018 -10.3997,15.71963 -18.95145,11.13328 z"
     id="path389"
     inkscape:connector-curvature="0"
     transform="matrix(0.74999998,0,0,0.74999998,-86,0)" />
</svg>
